<?xml version="1.0" encoding="UTF-8"?>
<!DOCTYPE svg PUBLIC "-//W3C//DTD SVG 1.1//EN" "http://www.w3.org/Graphics/SVG/1.1/DTD/svg11.dtd">
<svg xmlns="http://www.w3.org/2000/svg" version="1.1" width="96px" height="96px" style="shape-rendering:geometricPrecision; text-rendering:geometricPrecision; image-rendering:optimizeQuality; fill-rule:evenodd; clip-rule:evenodd" xmlns:xlink="http://www.w3.org/1999/xlink">
<g><path style="opacity:0.98" fill="#e91818" d="M 10.5,6.5 C 31.9248,6.02248 53.2581,6.52248 74.5,8C 76.0488,9.21398 77.2155,10.714 78,12.5C 78.966,27.2601 78.6326,41.9267 77,56.5C 75.786,58.0488 74.286,59.2155 72.5,60C 61.8333,60.3333 51.1667,60.6667 40.5,61C 37.6386,63.894 35.1386,67.0607 33,70.5C 31.1917,72.3959 29.025,72.8959 26.5,72C 23.5,68.3333 20.5,64.6667 17.5,61C 11.8257,61.5807 7.65902,59.414 5,54.5C 4.33333,40.5 4.33333,26.5 5,12.5C 6.35968,9.97739 8.19301,7.97739 10.5,6.5 Z M 15.5,12.5 C 33.902,12.0394 52.2353,12.5394 70.5,14C 71.1905,15.0674 71.6905,16.2341 72,17.5C 72.1667,22.8333 72.3333,28.1667 72.5,33.5C 72.6032,39.9109 72.1032,46.2442 71,52.5C 69.9326,53.1905 68.7659,53.6905 67.5,54C 56.8333,54.3333 46.1667,54.6667 35.5,55C 33.3333,57.8333 31.1667,60.6667 29,63.5C 27.0227,60.6884 24.856,58.0217 22.5,55.5C 19.1518,54.7125 15.8185,53.8792 12.5,53C 11.8095,51.9326 11.3095,50.7659 11,49.5C 10.3333,38.8333 10.3333,28.1667 11,17.5C 11.3477,14.6576 12.8477,12.991 15.5,12.5 Z M 34.5,24.5 C 36.8257,25.1511 39.1591,25.8178 41.5,26.5C 43.8235,25.6239 46.1568,25.1239 48.5,25C 51.3064,26.3051 52.1397,28.4718 51,31.5C 47.9845,34.6828 44.8178,37.6828 41.5,40.5C 38.1822,37.6828 35.0155,34.6828 32,31.5C 30.9164,28.3411 31.7498,26.0078 34.5,24.5 Z"/></g>
<g><path style="opacity:0.927" fill="#ea1818" d="M 32.5,17.5 C 38.4979,18.6602 44.4979,18.8269 50.5,18C 58.1619,21.6409 60.3286,27.4742 57,35.5C 52.5,40 48,44.5 43.5,49C 42.1667,49.6667 40.8333,49.6667 39.5,49C 34.3,44.1347 29.4666,38.9681 25,33.5C 22.9839,25.8711 25.4839,20.5378 32.5,17.5 Z M 34.5,24.5 C 31.7498,26.0078 30.9164,28.3411 32,31.5C 35.0155,34.6828 38.1822,37.6828 41.5,40.5C 44.8178,37.6828 47.9845,34.6828 51,31.5C 52.1397,28.4718 51.3064,26.3051 48.5,25C 46.1568,25.1239 43.8235,25.6239 41.5,26.5C 39.1591,25.8178 36.8257,25.1511 34.5,24.5 Z"/></g>
<g><path style="opacity:0.976" fill="#ea1818" d="M 82.5,24.5 C 86.1816,23.7253 88.6816,25.0586 90,28.5C 90.966,43.2601 90.6326,57.9267 89,72.5C 85.9311,75.8067 82.0977,77.3067 77.5,77C 75.3333,79.8333 73.1667,82.6667 71,85.5C 69.1363,88.2072 66.6363,89.0405 63.5,88C 60.5,84.3333 57.5,80.6667 54.5,77C 49.1771,76.5006 43.8437,76.334 38.5,76.5C 38.5,74.5 38.5,72.5 38.5,70.5C 45.5079,70.3337 52.5079,70.5004 59.5,71C 61.6667,73.8333 63.8333,76.6667 66,79.5C 67.9773,76.6884 70.144,74.0217 72.5,71.5C 76.1226,70.8199 79.6226,69.8199 83,68.5C 84.1032,62.2442 84.6032,55.9109 84.5,49.5C 84.3333,44.1667 84.1667,38.8333 84,33.5C 83.3647,31.3822 82.5314,29.3822 81.5,27.5C 81.685,26.4163 82.0183,25.4163 82.5,24.5 Z"/></g>
</svg>
